<?xml version="1.0" encoding="UTF-8"?>
<svg width="39px" height="40px" viewBox="0 0 39 40" version="1.1" xmlns="http://www.w3.org/2000/svg" xmlns:xlink="http://www.w3.org/1999/xlink">
    <!-- Generator: Sketch 41.2 (35397) - http://www.bohemiancoding.com/sketch -->
    <title>Page 1</title>
    <desc>Created with Sketch.</desc>
    <defs>
        <polygon id="path-1" points="0 39.9282918 38.9137895 39.9282918 38.9137895 0.150242996 0 0.150242996"></polygon>
    </defs>
    <g id="Page-1" stroke="none" stroke-width="1" fill="none" fill-rule="evenodd">
        <g id="Login-Page" transform="translate(-62.000000, -34.000000)">
            <g id="Page-1" transform="translate(62.000000, 34.000000)">
                <path d="M23.7346303,16.71278 L19.5829263,19.152757 L14.9891368,16.6946075 C14.7025382,16.5412931 14.3541039,16.5492276 14.0746895,16.7158514 C13.795275,16.8824752 13.6210579,17.1834731 13.6210579,17.5082744 L13.6210579,23.3114421 C13.6210579,23.8212957 14.0079789,24.2346559 14.5190842,24.2346559 C15.0301895,24.2346559 15.4171105,23.8212957 15.4171105,23.3114421 L15.4171105,19.0511446 L19.1598276,21.0255474 C19.4446303,21.178094 19.8423276,21.1709273 20.1209724,21.0073749 L23.3710579,19.1238345 L23.3710579,23.3114421 C23.3710579,23.8212957 23.7579789,24.2346559 24.2690842,24.2346559 C24.7801895,24.2346559 25.1671105,23.8212957 25.1671105,23.3114421 L25.1671105,17.5082744 C25.1671105,17.1768184 24.9705711,16.8709575 24.6821763,16.7066372 C24.3937816,16.542061 24.0204592,16.5446205 23.7346303,16.71278 Z" id="Fill-1" fill-opacity="0.879557292" fill="#00B4A0"></path>
                <g id="Group-5" transform="translate(0.000000, 0.105708)">
                    <mask id="mask-2" fill="white">
                        <use xlink:href="#path-1"></use>
                    </mask>
                    <g id="Clip-4"></g>
                    <path d="M33.7782849,27.0235447 L29.3984822,24.7729712 C29.1308704,24.6362936 28.8247717,24.6380852 28.5586993,24.7775783 L23.8207125,27.2702811 C23.5161533,27.4297383 23.3711862,27.7445575 23.3711862,28.0877872 L23.3711862,33.0972522 C23.3711862,33.4253808 23.4997322,33.7286823 23.783252,33.8942823 C23.9277059,33.9782341 24.0431664,34.0204659 24.2048112,34.0204659 C24.3610678,34.0204659 24.5196336,33.9813055 24.6604954,33.9022168 L29.4238836,31.2329081 C29.8695612,30.9831003 30.0322322,30.420265 29.7820678,29.9756788 C29.5313901,29.5313486 28.976923,29.3734271 28.5309888,29.6232348 L25.1672388,31.5193168 L25.1672388,28.6457595 L28.9828243,26.6344998 L32.6080283,28.493213 L32.6080283,32.9495687 L24.2225151,37.8236357 L20.4941664,35.8551198 L20.3704954,28.1057038 C20.3625414,27.6007133 19.9497059,27.2318885 19.4452717,27.2318885 L19.4303901,27.2318885 C18.9192849,27.2318885 18.5115809,27.6250286 18.5197914,28.1348822 L18.6462849,36.0603921 L15.346423,37.9395814 L6.69355461,32.9605746 L6.69355461,28.5981527 L10.060127,26.5223934 L13.6211862,28.6117181 L13.6211862,31.7798745 L10.9761138,30.0673091 C10.5471138,29.7896027 9.97545592,29.9116911 9.69732434,30.3393846 C9.41919276,30.767078 9.53747566,31.3388716 9.96621908,31.6163221 L14.0342783,34.2538929 C14.3188243,34.4381773 14.6662322,34.4519986 14.964377,34.2907498 C15.2622651,34.128989 15.4172388,33.8177531 15.4172388,33.4793864 L15.4172388,28.0854837 C15.4172388,27.7594026 15.2750941,27.4573809 14.9938836,27.291269 L10.5522454,24.6480673 C10.2548704,24.4724852 9.88385724,24.4763244 9.5905875,24.6588172 L5.79116645,27.0189376 L1.81855461,24.8912203 L1.81855461,21.8001051 L5.14022566,23.499361 C5.27313355,23.5676999 5.41810066,23.6012294 5.56281118,23.6012294 C5.73035724,23.6012294 5.87173224,23.5559261 6.01952171,23.4658315 C6.29483092,23.2981839 6.43697566,22.9997455 6.43697566,22.6780156 L6.43697566,17.138733 C6.43697566,16.6288794 6.05005461,16.2155192 5.53894934,16.2155192 C5.02784408,16.2155192 4.64092303,16.6288794 4.64092303,17.138733 L4.64092303,21.1671393 L1.81855461,19.7240899 L1.81855461,15.2810436 L5.15254145,13.2116831 L9.00276513,15.3145731 L9.00276513,20.1720034 C9.00276513,20.6821129 9.51797566,21.0952172 10.0290809,21.0952172 C10.5401862,21.0952172 11.0553967,20.6821129 11.0553967,20.1720034 L11.0553967,15.6616421 C11.1554625,15.6370709 11.2521928,15.5961188 11.3473836,15.532899 L15.2963901,12.8950722 C15.5537388,12.7238413 15.6738178,12.4353849 15.6738178,12.1269645 L15.6738178,6.95420309 C15.6738178,6.61916377 15.5262849,6.31048736 15.2327586,6.14744683 C14.9397454,5.98466226 14.615173,5.99285268 14.3296007,6.16894668 L10.2299822,8.70004206 C9.79559408,8.96827827 9.65960724,9.53725643 9.92850197,9.97083673 C10.1973967,10.404417 10.7641796,10.5382792 11.1990809,10.270043 L13.8777651,8.6112272 L13.8777651,11.6327239 L10.4583375,13.911452 L6.18039671,11.6178788 L6.18039671,7.38112867 L15.0877914,2.16459972 L18.4961862,4.50629166 L18.4961862,12.5224081 C18.4961862,13.0325177 18.8831072,13.4458779 19.3942125,13.4458779 C19.9053178,13.4458779 20.2922388,13.0325177 20.2922388,12.5224081 L20.2922388,4.61430281 L24.2276467,2.35144365 L32.6080283,7.42003316 L32.6080283,11.575391 L28.5309888,13.75609 L24.9106599,11.6675332 L24.9106599,8.65601855 L28.001923,10.6109692 C28.4347717,10.8830446 28.986673,10.7535336 29.2591599,10.3222569 C29.5316467,9.89072419 29.4079757,9.32072223 28.9756401,9.04890271 L24.4585678,6.20196431 C24.1735086,6.0227989 23.8379033,6.01256087 23.5430941,6.17483355 C23.2480283,6.33736217 23.1146072,6.64706238 23.1146072,6.98312551 L23.1146072,12.1991426 C23.1146072,12.528295 23.2403309,12.8323643 23.5256467,12.9977084 L27.4764493,15.3112458 L27.4764493,20.3040739 C27.4764493,20.8139275 27.8633704,21.2272877 28.3744757,21.2272877 C28.8855809,21.2272877 29.272502,20.8139275 29.272502,20.3040739 L29.272502,15.4256557 L33.6058638,13.1018803 L36.9698704,15.3130374 L36.9698704,19.531615 L34.147502,21.2057878 L34.147502,17.138733 C34.147502,16.6288794 33.6322914,16.2155192 33.1211862,16.2155192 C32.6100809,16.2155192 32.0948704,16.6288794 32.0948704,17.138733 L32.0948704,22.8100861 C32.0948704,23.1402624 32.2932059,23.4453555 32.5800612,23.6101876 C32.7229757,23.6920918 32.9038638,23.7332999 33.0631993,23.7332999 C33.2238178,23.7332999 33.3941862,23.6915799 33.5378704,23.60814 L36.9698704,21.6229873 L36.9698704,24.94497 L33.7782849,27.0235447 Z M38.765923,14.8134219 C38.765923,14.50193 38.661752,14.2111701 38.400298,14.040707 L34.4040809,11.4005767 L34.4040809,6.90045347 C34.4040809,6.57795572 34.2326862,6.27874949 33.9563507,6.11110185 L24.6694757,0.48914717 C24.3805678,0.314076967 24.0323901,0.310237709 23.7398901,0.479165097 L19.4796533,2.94857638 L15.5888901,0.310237709 C15.2935678,0.109828398 14.8951007,0.096518967 14.5872059,0.27619628 L4.64297566,6.05402487 C4.35894276,6.2196249 4.12776513,6.5231823 4.12776513,6.85131095 L4.12776513,11.7276816 L0.457403289,13.9779991 C0.183120395,14.1459027 0.0225019737,14.4438292 0.0225019737,14.7645353 L0.0225019737,20.1003372 C-0.0082875,20.2352232 -0.00674802632,20.3716449 0.0225019737,20.5026916 L0.0225019737,25.442282 C0.0225019737,25.7816724 0.202876974,26.0936762 0.502304605,26.2549251 L4.89750197,28.6232359 L4.89750197,33.4929518 C4.89750197,33.8223602 5.07556776,34.1269414 5.36139671,34.2920295 L14.9099822,39.8041814 C15.0534099,39.8868534 15.2135151,39.9283174 15.3736204,39.9283174 C15.5324428,39.9283174 15.6894691,39.8876213 15.8318704,39.805973 L19.7775414,37.5495127 L23.7670875,39.6867001 C23.9038441,39.7599019 24.0544559,39.7965029 24.2048112,39.7965029 C24.3664559,39.7965029 24.5322059,39.754271 24.6764033,39.6703192 L33.9360809,34.2764165 C34.2201138,34.1110725 34.4040809,33.8075151 34.4040809,33.4793864 L34.4040809,28.8151988 L38.3997849,26.2234432 C38.6638046,26.053236 38.765923,25.7611964 38.765923,25.4476569 L38.765923,20.4532931 C38.9424493,20.1735391 38.9716993,19.8136726 38.7949164,19.5103711 C38.7864493,19.495526 38.765923,14.8134219 38.765923,14.8134219 Z" id="Fill-3" fill-opacity="0.879557292" fill="#00B4A0" mask="url(#mask-2)"></path>
                </g>
            </g>
        </g>
    </g>
</svg>